# xmcd CD database file
# Generated: Di Sep 14 21:27:20 2004 by KSCD
# 
# Track frame offsets:
#       150
#       18535
#       39200
#       56168
#       73758
#       90820
#       107078
#       124180
#       141245
#       159243
#       174998
#       193090
#       210028
#       235368
#       250695
#       269583
#       285205
#       304303
#       317125
#
# Disc length: 4484 seconds
#
# Revision: 1
# Processed by: cddbd v1.5.1PL0 Copyright (c) Steve Scherf et al.
# Submitted via: Kscd 1.3.3
#
DISCID=03118213
DTITLE=Various Artist - The Most Beautiful Soul Album On Earth CD2
DYEAR=1900
DGENRE=
TTITLE0=(Sexual) Healing (Marvin Gaye)
TTITLE1=Sign Your Name (Terance Trent D'Arby)
TTITLE2=Wonderful Tonight (Damage)
TTITLE3=Feel So High (Des'ree)
TTITLE4=After The Love Has Gone (Earth Wind and Fire)
TTITLE5=How 'bout Us (Isley Brothers)
TTITLE6=Between The Sheers (The Stylistics)
TTITLE7=Betcha By Golly, Wow (The Stylistics)
TTITLE8=Woman In Love (Three Degrees)
TTITLE9=Tonight I Celebrate My Love (Peabo Bryson and Roberta Flack)
TTITLE10=Shake You Down (Gregory Abbot)
TTITLE11=Come Into My Life (Joyce Sims)
TTITLE12=Do What You Do (Jermaine Jackson)
TTITLE13=Never Knew Love Like This Before (Stephanie Mills)
TTITLE14=Could It Be I'm Falling In Love (Detroit Spinners)
TTITLE15=I Care (Soul II Soul Feat. Charlotte)
TTITLE16=Heartbreaker (Dionne Warwick)
TTITLE17=Tired Of Being Alone (Al Green)
TTITLE18=Gimme Your Love (Curtis Mayfield)
EXTD=
EXTT0=
EXTT1=
EXTT2=
EXTT3=
EXTT4=
EXTT5=
EXTT6=
EXTT7=
EXTT8=
EXTT9=
EXTT10=
EXTT11=
EXTT12=
EXTT13=
EXTT14=
EXTT15=
EXTT16=
EXTT17=
EXTT18=
PLAYORDER=
